# xmcd CD database file
#
# Track frame offsets:
#	150
#	16550
#	47012
#	72542
#	91180
#
# Disc length: 1598 seconds
#
# Revision: 0
# Processed by: cddbd v1.5.1PL0 Copyright (c) Steve Scherf et al.
# Submitted via: CDex 1.51
#
DISCID=33063c05
DTITLE=オゾン - 恋のマイアヒ
DYEAR=2005
DGENRE=Dance
TTITLE0=恋のマイアヒ〜DRAGOSTEA DIN TEI
TTITLE1=恋のマイアヒ〜DRAGOSTEA DIN TEI (OVERHEAD CHAMPION REMIX)
TTITLE2=恋のマイアヒ〜DRAGOSTEA DIN TEI (DJ KAYA and KOUSUKE REMIX)
TTITLE3=恋のマイアヒ〜DRAGOSTEA DIN TEI (EUROBEAT REMIX)
TTITLE4=恋のマイアヒ〜DRAGOSTEA DIN TEI (DJ ROSS EXTENDED REMIX)
EXTD=YEAR: 2005
EXTT0=
EXTT1=
EXTT2=
EXTT3=
EXTT4=
PLAYORDER=
